<svg xmlns="http://www.w3.org/2000/svg" width="22" height="20" viewBox="0 0 22 20">
  <defs>
    <style>
      .cls-1 {
        fill: #6d6d6c;
        fill-rule: evenodd;
      }
    </style>
  </defs>
  <path id="Forma_1" data-name="Forma 1" class="cls-1" d="M175.767,3124.64l-6.286-6.4a0.756,0.756,0,0,0-1.1,0,0.769,0.769,0,0,0-.233.56v3.2h-2.75q-8.754,0-10.743,5.04a11.54,11.54,0,0,0-.65,4.16,15.28,15.28,0,0,0,1.559,5.64c0.025,0.05.067,0.15,0.129,0.3s0.117,0.26.166,0.37a1.587,1.587,0,0,0,.159.28,0.419,0.419,0,0,0,.344.21,0.342,0.342,0,0,0,.289-0.13,0.452,0.452,0,0,0,.1-0.31,2.637,2.637,0,0,0-.031-0.33,2.856,2.856,0,0,1-.031-0.29c-0.041-.57-0.061-1.08-0.061-1.54a10.775,10.775,0,0,1,.215-2.26,6.736,6.736,0,0,1,.595-1.73,4.41,4.41,0,0,1,.983-1.27,5.675,5.675,0,0,1,1.3-.86,6.727,6.727,0,0,1,1.633-.54,15.141,15.141,0,0,1,1.89-.27c0.635-.05,1.353-0.07,2.155-0.07h2.75v3.2a0.765,0.765,0,0,0,.233.56,0.756,0.756,0,0,0,1.1,0l6.286-6.4A0.789,0.789,0,0,0,175.767,3124.64Z" transform="translate(-154 -3118)"/>
</svg>
