<svg xmlns="http://www.w3.org/2000/svg" width="45.41" height="26.88" viewBox="0 0 45.41 26.88">
  <defs>
    <style>
      .cls-1 {
        fill: #d3be84;
        fill-rule: evenodd;
      }
    </style>
  </defs>
  <path id="Forma_1" data-name="Forma 1" class="cls-1" d="M1631.31,4379.01h-43.62a1.506,1.506,0,0,1-.68-1.11,1.166,1.166,0,0,1,.68-0.93h43.62a1.215,1.215,0,0,1,.68.96A1.447,1.447,0,0,1,1631.31,4379.01Zm-13.57,11.5a0.989,0.989,0,0,1-.31-0.98l12.33-11.6-12.45-13.07c-0.21-.2.14-0.37,0.34-0.57a1.132,1.132,0,0,1,1.11-.16l13.07,12.99a0.523,0.523,0,0,1,.16.37,3.714,3.714,0,0,1,.41.68l-13.64,12.68A1.087,1.087,0,0,1,1617.74,4390.51Z" transform="translate(-1587 -4364.03)"/>
</svg>
