<svg xmlns="http://www.w3.org/2000/svg" width="45.406" height="26.88" viewBox="0 0 45.406 26.88">
  <metadata><?xpacket begin="﻿" id="W5M0MpCehiHzreSzNTczkc9d"?>
<x:xmpmeta xmlns:x="adobe:ns:meta/" x:xmptk="Adobe XMP Core 5.6-c140 79.160451, 2017/05/06-01:08:21        ">
   <rdf:RDF xmlns:rdf="http://www.w3.org/1999/02/22-rdf-syntax-ns#">
      <rdf:Description rdf:about=""/>
   </rdf:RDF>
</x:xmpmeta>
                                                                                                    
                                                                                                    
                                                                                                    
                                                                                                    
                                                                                                    
                                                                                                    
                                                                                                    
                                                                                                    
                                                                                                    
                                                                                                    
                                                                                                    
                                                                                                    
                                                                                                    
                                                                                                    
                                                                                                    
                                                                                                    
                                                                                                    
                                                                                                    
                                                                                                    
                                                                                                    
                           
<?xpacket end="w"?></metadata>
<defs>
    <style>
      .cls-1 {
        fill: #464135;
        fill-rule: evenodd;
      }
    </style>
  </defs>
  <path id="Forma_1_копия_4" data-name="Forma 1 копия 4" class="cls-1" d="M313.1,4379.01H356.72a1.509,1.509,0,0,0,.677-1.11,1.167,1.167,0,0,0-.677-0.93H313.1a1.217,1.217,0,0,0-.678.96A1.451,1.451,0,0,0,313.1,4379.01Zm13.565,11.5a0.978,0.978,0,0,0,.313-0.98l-12.329-11.6,12.453-13.07c0.2-.2-0.14-0.37-0.343-0.57a1.136,1.136,0,0,0-1.112-.16l-13.072,12.99a0.524,0.524,0,0,0-.152.37,3.358,3.358,0,0,0-.41.68l13.634,12.68A1.078,1.078,0,0,0,326.662,4390.51Z" transform="translate(-312 -4364.03)"/>
</svg>
