<svg xmlns="http://www.w3.org/2000/svg" width="17" height="16.969" viewBox="0 0 17 16.969">
  <metadata><?xpacket begin="﻿" id="W5M0MpCehiHzreSzNTczkc9d"?>
<x:xmpmeta xmlns:x="adobe:ns:meta/" x:xmptk="Adobe XMP Core 5.6-c140 79.160451, 2017/05/06-01:08:21        ">
   <rdf:RDF xmlns:rdf="http://www.w3.org/1999/02/22-rdf-syntax-ns#">
      <rdf:Description rdf:about=""/>
   </rdf:RDF>
</x:xmpmeta>
                                                                                                    
                                                                                                    
                                                                                                    
                                                                                                    
                                                                                                    
                                                                                                    
                                                                                                    
                                                                                                    
                                                                                                    
                                                                                                    
                                                                                                    
                                                                                                    
                                                                                                    
                                                                                                    
                                                                                                    
                                                                                                    
                                                                                                    
                                                                                                    
                                                                                                    
                                                                                                    
                           
<?xpacket end="w"?></metadata>
<defs>
    <style>
      .cls-1 {
        fill: #d3be84;
        fill-rule: evenodd;
      }
    </style>
  </defs>
  <path id="Forma_1_копия" data-name="Forma 1 копия" class="cls-1" d="M1486.62,65.451l-2.63-2.632a1.367,1.367,0,0,0-1.93.036l-1.32,1.326c-0.08-.046-0.17-0.095-0.26-0.146a13.015,13.015,0,0,1-3.18-2.307,13.371,13.371,0,0,1-2.31-3.195c-0.05-.089-0.09-0.174-0.14-0.256l0.89-.888,0.44-.438a1.377,1.377,0,0,0,.03-1.935l-2.62-2.633a1.365,1.365,0,0,0-1.93.037l-0.74.746,0.02,0.02a4.1,4.1,0,0,0-.61,1.078,4.553,4.553,0,0,0-.27,1.093c-0.35,2.881.96,5.514,4.53,9.087,4.92,4.939,8.89,4.566,9.06,4.547a4.415,4.415,0,0,0,1.09-.276,4.214,4.214,0,0,0,1.08-.609l0.01,0.015,0.75-.736A1.378,1.378,0,0,0,1486.62,65.451Z" transform="translate(-1470 -52.031)"/>
</svg>
