<svg xmlns="http://www.w3.org/2000/svg" width="29" height="29" viewBox="0 0 29 29">
  <metadata><?xpacket begin="﻿" id="W5M0MpCehiHzreSzNTczkc9d"?>
<x:xmpmeta xmlns:x="adobe:ns:meta/" x:xmptk="Adobe XMP Core 5.6-c140 79.160451, 2017/05/06-01:08:21        ">
   <rdf:RDF xmlns:rdf="http://www.w3.org/1999/02/22-rdf-syntax-ns#">
      <rdf:Description rdf:about=""/>
   </rdf:RDF>
</x:xmpmeta>
                                                                                                    
                                                                                                    
                                                                                                    
                                                                                                    
                                                                                                    
                                                                                                    
                                                                                                    
                                                                                                    
                                                                                                    
                                                                                                    
                                                                                                    
                                                                                                    
                                                                                                    
                                                                                                    
                                                                                                    
                                                                                                    
                                                                                                    
                                                                                                    
                                                                                                    
                                                                                                    
                           
<?xpacket end="w"?></metadata>
<defs>
    <style>
      .cls-1 {
        fill: #64615e;
        fill-rule: evenodd;
      }
    </style>
  </defs>
  <path id="Forma_1" data-name="Forma 1" class="cls-1" d="M1802.94,4914h-10.88a9.065,9.065,0,0,0-9.06,9.06v10.88a9.065,9.065,0,0,0,9.06,9.06h10.88a9.065,9.065,0,0,0,9.06-9.06v-10.88A9.065,9.065,0,0,0,1802.94,4914Zm6.34,19.94a6.342,6.342,0,0,1-6.34,6.34h-10.88a6.342,6.342,0,0,1-6.34-6.34v-10.88a6.342,6.342,0,0,1,6.34-6.34h10.88a6.342,6.342,0,0,1,6.34,6.34v10.88Zm-11.78-12.69a7.25,7.25,0,1,0,7.25,7.25A7.255,7.255,0,0,0,1797.5,4921.25Zm0,11.78a4.53,4.53,0,1,1,4.53-4.53A4.532,4.532,0,0,1,1797.5,4933.03Zm7.79-13.29a0.965,0.965,0,1,1-.96.97A0.965,0.965,0,0,1,1805.29,4919.74Z" transform="translate(-1783 -4914)"/>
</svg>
