<svg xmlns="http://www.w3.org/2000/svg" width="48" height="33" viewBox="0 0 48 33">
  <metadata><?xpacket begin="﻿" id="W5M0MpCehiHzreSzNTczkc9d"?>
<x:xmpmeta xmlns:x="adobe:ns:meta/" x:xmptk="Adobe XMP Core 5.6-c140 79.160451, 2017/05/06-01:08:21        ">
   <rdf:RDF xmlns:rdf="http://www.w3.org/1999/02/22-rdf-syntax-ns#">
      <rdf:Description rdf:about=""/>
   </rdf:RDF>
</x:xmpmeta>
                                                                                                    
                                                                                                    
                                                                                                    
                                                                                                    
                                                                                                    
                                                                                                    
                                                                                                    
                                                                                                    
                                                                                                    
                                                                                                    
                                                                                                    
                                                                                                    
                                                                                                    
                                                                                                    
                                                                                                    
                                                                                                    
                                                                                                    
                                                                                                    
                                                                                                    
                                                                                                    
                           
<?xpacket end="w"?></metadata>
<defs>
    <style>
      .cls-1 {
        fill: #64615e;
        fill-rule: evenodd;
      }
    </style>
  </defs>
  <path id="Forma_1" data-name="Forma 1" class="cls-1" d="M1887.96,4913.18c-1.3-2.32-2.72-2.74-5.59-2.9-2.88-.2-10.1-0.28-16.36-0.28-6.28,0-13.51.08-16.38,0.27-2.87.17-4.29,0.59-5.6,2.91-1.34,2.31-2.03,6.3-2.03,13.31v0.02h0c0,6.99.69,11,2.03,13.29,1.31,2.32,2.73,2.74,5.6,2.93,2.87,0.17,10.1.27,16.38,0.27,6.26,0,13.48-.1,16.36-0.26,2.88-.2,4.29-0.62,5.59-2.94,1.36-2.28,2.04-6.3,2.04-13.28v-0.03C1890,4919.48,1889.32,4915.49,1887.96,4913.18ZM1860,4935.5v-18l15,9Z" transform="translate(-1842 -4910)"/>
</svg>
