<svg xmlns="http://www.w3.org/2000/svg" width="10" height="17" viewBox="0 0 10 17">
  <metadata><?xpacket begin="﻿" id="W5M0MpCehiHzreSzNTczkc9d"?>
<x:xmpmeta xmlns:x="adobe:ns:meta/" x:xmptk="Adobe XMP Core 5.6-c140 79.160451, 2017/05/06-01:08:21        ">
   <rdf:RDF xmlns:rdf="http://www.w3.org/1999/02/22-rdf-syntax-ns#">
      <rdf:Description rdf:about=""/>
   </rdf:RDF>
</x:xmpmeta>
                                                                                                    
                                                                                                    
                                                                                                    
                                                                                                    
                                                                                                    
                                                                                                    
                                                                                                    
                                                                                                    
                                                                                                    
                                                                                                    
                                                                                                    
                                                                                                    
                                                                                                    
                                                                                                    
                                                                                                    
                                                                                                    
                                                                                                    
                                                                                                    
                                                                                                    
                                                                                                    
                           
<?xpacket end="w"?></metadata>
<defs>
    <style>
      .cls-1 {
        fill: #d3be84;
        fill-rule: evenodd;
      }
    </style>
  </defs>
  <path class="cls-1" d="M1452.89,2150.5c-0.56,0-1.67,1.13-3.89,1.13s-3.33-1.13-3.89-1.13a1.125,1.125,0,0,0-1.11,1.13,1.092,1.092,0,0,0,.56.99c0.65,0.39,2.77,1.28,2.77,1.28l-2.36,3.08a2.024,2.024,0,0,0-.41.89,1.118,1.118,0,0,0,1.11,1.13,1.02,1.02,0,0,0,.82-0.37l2.51-3.03,2.51,3.03a1.02,1.02,0,0,0,.82.37,1.118,1.118,0,0,0,1.11-1.13,2.024,2.024,0,0,0-.41-0.89l-2.36-3.08s2.12-.89,2.77-1.28a1.092,1.092,0,0,0,.56-0.99A1.125,1.125,0,0,0,1452.89,2150.5ZM1449,2142a3.966,3.966,0,1,0,3.89,3.97A3.931,3.931,0,0,0,1449,2142Zm0,5.95a1.986,1.986,0,1,1,1.94-1.98A1.963,1.963,0,0,1,1449,2147.95Z" transform="translate(-1444 -2142)"/>
</svg>
