<svg xmlns="http://www.w3.org/2000/svg" width="42" height="24" viewBox="0 0 42 24">
  <defs>
    <style>
      .cls-1 {
        fill: #64615e;
        fill-rule: evenodd;
      }
    </style>
  </defs>
  <path id="Forma_1" data-name="Forma 1" class="cls-1" d="M1701.77,4940.68a2.427,2.427,0,0,0-.14-0.28,21.948,21.948,0,0,0-4.17-4.84l-0.05-.04-0.02-.02-0.02-.03h-0.02a23.617,23.617,0,0,1-1.77-1.79,1.681,1.681,0,0,1-.31-1.78,16.187,16.187,0,0,1,1.97-2.87c0.6-.77,1.07-1.39,1.42-1.86q3.78-5.04,3.28-6.44l-0.13-.22a1.332,1.332,0,0,0-.68-0.36,3.462,3.462,0,0,0-1.4-.06l-6.3.05a0.787,0.787,0,0,0-.43.01c-0.19.04-.29,0.07-0.29,0.07l-0.11.05-0.08.07a0.73,0.73,0,0,0-.24.23,1.266,1.266,0,0,0-.22.38,36.827,36.827,0,0,1-2.34,4.93c-0.54.9-1.04,1.69-1.49,2.35a10.276,10.276,0,0,1-1.14,1.47,6.762,6.762,0,0,1-.83.76,0.789,0.789,0,0,1-.57.24c-0.13-.03-0.25-0.06-0.37-0.09a1.425,1.425,0,0,1-.49-0.54,2.372,2.372,0,0,1-.25-0.85c-0.04-.34-0.07-0.64-0.08-0.89s0-.6.01-1.05,0.03-.76.03-0.92c0-.56.01-1.16,0.03-1.81s0.04-1.16.05-1.54,0.02-.78.02-1.21a5.167,5.167,0,0,0-.07-0.99,3.675,3.675,0,0,0-.23-0.71,1.144,1.144,0,0,0-.45-0.52,2.917,2.917,0,0,0-.73-0.3,14.6,14.6,0,0,0-2.95-.28c-2.72-.03-4.46.14-5.23,0.52a2.879,2.879,0,0,0-.83.66c-0.26.32-.3,0.5-0.11,0.53a2.685,2.685,0,0,1,1.86.94l0.13,0.26a4.746,4.746,0,0,1,.31,1.01,10.64,10.64,0,0,1,.19,1.6,15.559,15.559,0,0,1,0,2.74q-0.1,1.14-.21,1.77a3.351,3.351,0,0,1-.29,1.03,3.471,3.471,0,0,1-.26.48,0.363,0.363,0,0,1-.11.11,1.507,1.507,0,0,1-.59.11,1.427,1.427,0,0,1-.75-0.3,5.35,5.35,0,0,1-.9-0.85,9.588,9.588,0,0,1-1.06-1.5,23.142,23.142,0,0,1-1.23-2.28l-0.35-.63c-0.22-.41-0.52-1.01-0.89-1.79s-0.72-1.53-1.01-2.26a1.486,1.486,0,0,0-.52-0.71l-0.11-.06a1.769,1.769,0,0,0-.35-0.19,2.73,2.73,0,0,0-.51-0.14l-5.99.04a1.49,1.49,0,0,0-1.24.42l-0.09.13a0.633,0.633,0,0,0-.07.35,1.92,1.92,0,0,0,.13.59q1.32,3.09,2.86,5.96c1.02,1.92,1.92,3.46,2.68,4.62s1.53,2.28,2.31,3.31,1.31,1.7,1.57,2,0.45,0.51.6,0.65l0.54,0.53a13.16,13.16,0,0,0,1.55,1.26,25.1,25.1,0,0,0,2.25,1.45,12.366,12.366,0,0,0,2.87,1.16,9.907,9.907,0,0,0,3.2.36h2.51a1.8,1.8,0,0,0,1.16-.48l0.09-.11a1.939,1.939,0,0,0,.16-0.41,2.233,2.233,0,0,0,.08-0.6,6.967,6.967,0,0,1,.14-1.7,4.6,4.6,0,0,1,.37-1.14,2.946,2.946,0,0,1,.47-0.64,1.783,1.783,0,0,1,.37-0.32c0.08-.04.13-0.06,0.18-0.08a1.4,1.4,0,0,1,1.23.34,7.242,7.242,0,0,1,1.34,1.27c0.41,0.51.91,1.07,1.49,1.7a10.45,10.45,0,0,0,1.53,1.4l0.44,0.27a5.741,5.741,0,0,0,1.14.48,2.541,2.541,0,0,0,1.22.11l5.6-.09a2.554,2.554,0,0,0,1.29-.27,1.114,1.114,0,0,0,.55-0.61,1.663,1.663,0,0,0,.01-0.74A2.122,2.122,0,0,0,1701.77,4940.68Z" transform="translate(-1660 -4919)"/>
</svg>
