<svg xmlns="http://www.w3.org/2000/svg" width="21" height="38" viewBox="0 0 21 38">
  <metadata><?xpacket begin="﻿" id="W5M0MpCehiHzreSzNTczkc9d"?>
<x:xmpmeta xmlns:x="adobe:ns:meta/" x:xmptk="Adobe XMP Core 5.6-c140 79.160451, 2017/05/06-01:08:21        ">
   <rdf:RDF xmlns:rdf="http://www.w3.org/1999/02/22-rdf-syntax-ns#">
      <rdf:Description rdf:about=""/>
   </rdf:RDF>
</x:xmpmeta>
                                                                                                    
                                                                                                    
                                                                                                    
                                                                                                    
                                                                                                    
                                                                                                    
                                                                                                    
                                                                                                    
                                                                                                    
                                                                                                    
                                                                                                    
                                                                                                    
                                                                                                    
                                                                                                    
                                                                                                    
                                                                                                    
                                                                                                    
                                                                                                    
                                                                                                    
                                                                                                    
                           
<?xpacket end="w"?></metadata>
<defs>
    <style>
      .cls-1 {
        fill: #d3be84;
        fill-rule: evenodd;
      }
    </style>
  </defs>
  <path id="Forma_1" data-name="Forma 1" class="cls-1" d="M1752.21,4905.01l-5.04-.01c-5.66,0-9.31,3.67-9.31,9.35v4.31h-5.07a0.783,0.783,0,0,0-.79.78v6.25a0.781,0.781,0,0,0,.79.77h5.07v15.77a0.781,0.781,0,0,0,.79.77h6.61a0.788,0.788,0,0,0,.79-0.77v-15.77h5.92a0.781,0.781,0,0,0,.79-0.77v-6.25a0.764,0.764,0,0,0-.23-0.55,0.787,0.787,0,0,0-.56-0.23h-5.92v-3.65c0-1.76.43-2.65,2.76-2.65h3.4a0.783,0.783,0,0,0,.79-0.78v-5.8A0.775,0.775,0,0,0,1752.21,4905.01Z" transform="translate(-1732 -4905)"/>
</svg>
