<svg xmlns="http://www.w3.org/2000/svg" viewBox="0 0 328.23 123.56"><defs><style>.cls-1{fill:#fff;}.cls-2{fill:#f9b233;}</style></defs><title>Ресурс 7</title><g id="Слой_2" data-name="Слой 2"><g id="Слой_1-2" data-name="Слой 1"><path class="cls-1" d="M18,1.17a1.3,1.3,0,0,0-1.45.59L9.46,12.93,2.3,1.78A1.25,1.25,0,0,0,.89,1.16,1.25,1.25,0,0,0,0,2.39v17a1.23,1.23,0,0,0,1.24,1.25,1.22,1.22,0,0,0,1.23-1.25V6.54l5.82,9.1a1.34,1.34,0,0,0,1.16.72,1.3,1.3,0,0,0,1.13-.67L16.44,6.5V19.39a1.21,1.21,0,0,0,1.22,1.25,1.23,1.23,0,0,0,1.24-1.25v-17A1.22,1.22,0,0,0,18,1.17Z"/><path class="cls-1" d="M31.65,4.83a9.42,9.42,0,0,0-4.63,0,8,8,0,0,0-5.69,7.29A8.23,8.23,0,0,0,23.18,18h0a7.9,7.9,0,0,0,6.17,2.77A7.9,7.9,0,0,0,35.53,18a8.32,8.32,0,0,0,1.86-5.92A8.05,8.05,0,0,0,31.65,4.83Zm2,11.6a5.57,5.57,0,0,1-4.28,1.89,5.48,5.48,0,0,1-4.23-1.89,5.92,5.92,0,0,1-1-5.58,5.21,5.21,0,0,1,3.61-3.6h0a6.22,6.22,0,0,1,1.58-.2,6.86,6.86,0,0,1,1.63.2,5.28,5.28,0,0,1,3.65,3.65A5.89,5.89,0,0,1,33.64,16.43Z"/><path class="cls-1" d="M52.59.71A1.21,1.21,0,0,0,51.36,2V6.3a6.78,6.78,0,0,0-.92-.71,7.83,7.83,0,0,0-11.75,6.75,8,8,0,0,0,4.93,8,7.73,7.73,0,0,0,6.86-.49,7.73,7.73,0,0,0,.88-.7v.29a1.21,1.21,0,0,0,1.23,1.26,1.22,1.22,0,0,0,1.26-1.26V2A1.22,1.22,0,0,0,52.59.71ZM46.4,18.47a5.57,5.57,0,0,1-3-1.1,5.8,5.8,0,0,1-2.19-5,6.45,6.45,0,0,1,.45-2.18,5.31,5.31,0,0,1,5-3.1h.07a5.57,5.57,0,0,1,2.19.48,4.45,4.45,0,0,1,2.5,4v2.42a4.45,4.45,0,0,1-2.48,4A5.53,5.53,0,0,1,46.4,18.47Z"/><path class="cls-1" d="M66.32,4.83a9.42,9.42,0,0,0-4.63,0A7.88,7.88,0,0,0,56,12.13,8.5,8.5,0,0,0,57.84,18a7.89,7.89,0,0,0,6.23,2.79h.15a7.87,7.87,0,0,0,5.37-1.91,1.21,1.21,0,0,0,.12-1.7A1.3,1.3,0,0,0,68,17,6.15,6.15,0,0,1,64,18.32a5.54,5.54,0,0,1-4.22-1.9,5.18,5.18,0,0,1-1.09-2.09H70.43a1.58,1.58,0,0,0,1.22-.49,1.62,1.62,0,0,0,.41-1.23C72,8.69,69.85,5.78,66.32,4.83Zm-7.75,7.06a5.32,5.32,0,0,1,3.85-4.67,6.7,6.7,0,0,1,3.21,0,5.21,5.21,0,0,1,3.91,4.7Z"/><path class="cls-1" d="M75.54.74A1.24,1.24,0,0,0,74.28,2V19.61a1.24,1.24,0,0,0,1.26,1.24,1.26,1.26,0,0,0,1.24-1.24V2A1.25,1.25,0,0,0,75.54.74Z"/><path class="cls-1" d="M93.39,11.31c-3.08-.27-4.53-.54-4.53-1.92C88.86,7.62,91.46,7,93.1,7c2.5,0,4,.61,4.43,1.78a1.25,1.25,0,0,0,1.54.82,1.3,1.3,0,0,0,.81-1.69C99,5.66,96.75,4.53,93.1,4.53c-2.78,0-6.71,1.51-6.71,4.86,0,3.88,3.83,4.2,6.9,4.45s4.62.55,4.62,2c0,1.89-3,2.5-4.52,2.5-2.47,0-4.51-.83-4.77-1.93a1.22,1.22,0,0,0-2.06-.78,1.21,1.21,0,0,0-.32,1.22c.69,3.52,5.23,3.9,7.15,3.9,3.23,0,7-1.29,7-4.91C100.41,11.93,96.52,11.59,93.39,11.31Z"/><path class="cls-1" d="M114.22,16a1.5,1.5,0,0,0-.78.47,5,5,0,0,1-4,1.87h-.07a5.36,5.36,0,0,1-4.18-1.89,6.06,6.06,0,0,1-.93-5.69A5.06,5.06,0,0,1,107.7,7.2a5.16,5.16,0,0,1,5.49,1.64,1.16,1.16,0,0,0,1.11.45,1.21,1.21,0,0,0,.84-.43,1.23,1.23,0,0,0,.27-.85,1.26,1.26,0,0,0-.3-.78c-2-2.35-4.5-3.07-8-2.34a7.61,7.61,0,0,0-5.6,7.26,8.19,8.19,0,0,0,1.8,5.86,7.93,7.93,0,0,0,6.1,2.78h.06a7.61,7.61,0,0,0,5.92-2.72,1.27,1.27,0,0,0,.33-.93l0-.24A1.28,1.28,0,0,0,114.22,16Z"/><path class="cls-1" d="M129.88,6a7.56,7.56,0,0,0-10.06,1V2A1.26,1.26,0,0,0,118.55.7a1.25,1.25,0,0,0-.83.32,1.2,1.2,0,0,0-.39.92V19.5a1.22,1.22,0,0,0,1.26,1.26,1.21,1.21,0,0,0,1.23-1.26V12.84a6,6,0,0,1,4.35-5.7,4.65,4.65,0,0,1,4.06.79,4.4,4.4,0,0,1,1.71,3.56v8a1.22,1.22,0,0,0,1.26,1.26,1.2,1.2,0,0,0,1.23-1.26v-8A6.77,6.77,0,0,0,129.88,6Z"/><path class="cls-1" d="M144.85,4.83a9.46,9.46,0,0,0-4.64,0,8,8,0,0,0-5.69,7.29A8.24,8.24,0,0,0,136.38,18h0a8.26,8.26,0,0,0,12.34,0,8.27,8.27,0,0,0,1.86-5.92A8,8,0,0,0,144.85,4.83Zm2,11.6a5.57,5.57,0,0,1-4.28,1.89,5.45,5.45,0,0,1-4.22-1.89,6,6,0,0,1-1-5.58A5.24,5.24,0,0,1,141,7.25h0a6.2,6.2,0,0,1,1.57-.2,7,7,0,0,1,1.64.2,5.28,5.28,0,0,1,3.65,3.65A5.87,5.87,0,0,1,146.83,16.43Z"/><path class="cls-1" d="M162.16,4.83a9.46,9.46,0,0,0-4.64,0,8,8,0,0,0-5.69,7.29A8.24,8.24,0,0,0,153.69,18h0A8.26,8.26,0,0,0,166,18a8.27,8.27,0,0,0,1.86-5.92A8,8,0,0,0,162.16,4.83Zm2,11.6a5.57,5.57,0,0,1-4.28,1.89,5.48,5.48,0,0,1-4.23-1.89,6,6,0,0,1-1-5.58,5.23,5.23,0,0,1,3.61-3.6h0a6.14,6.14,0,0,1,1.57-.2,6.8,6.8,0,0,1,1.63.2,5.3,5.3,0,0,1,3.66,3.64A5.91,5.91,0,0,1,164.14,16.43Z"/><path class="cls-1" d="M171,.74A1.23,1.23,0,0,0,169.78,2V19.61A1.24,1.24,0,0,0,171,20.85a1.25,1.25,0,0,0,1.23-1.24V2A1.24,1.24,0,0,0,171,.74Z"/><path class="cls-1" d="M197.31,18.28a3.23,3.23,0,0,1-4.41-.65L191.23,16a15,15,0,0,0,1.71-5.6,6.57,6.57,0,0,1,.39-1.74s.07-.12.37-.08l.56.06V7.3l-5,0V8.59l.91-.05.17,0a2.44,2.44,0,0,1,1,.18s.12.16.12.58a17.75,17.75,0,0,1-.36,3,7.91,7.91,0,0,1-.89,2.58l-8-7.92c-2-1.95-2.41-3.1-2.41-3.71a1.75,1.75,0,0,1,.49-1.2,1.81,1.81,0,0,1,1.44-.52,5,5,0,0,1,2.49.73,8.06,8.06,0,0,1,2.32,2l.15.18h1.23l-1.14-3-.16-.09a12.76,12.76,0,0,0-2-.95A7.32,7.32,0,0,0,182.11,0a4.57,4.57,0,0,0-3.57,1.29,4.18,4.18,0,0,0-1.14,2.87A4.55,4.55,0,0,0,177.79,6a10.78,10.78,0,0,0,.66,1.22,6.38,6.38,0,0,0-3.27,2.05,6.24,6.24,0,0,0-1.47,4.11,7.05,7.05,0,0,0,2.15,5c1.42,1.49,3.6,2.25,6.46,2.25a10.35,10.35,0,0,0,6.94-2.36l.44.46a5.88,5.88,0,0,0,4.22,1.9A6.85,6.85,0,0,0,198,19.32l.4-.29-.67-1ZM179.45,8.57c.21.26.51.6.92,1,.86.91.92,1,.93,1l6.84,6.63a8.4,8.4,0,0,1-1.72,1.08,6.19,6.19,0,0,1-2.43.37,7.81,7.81,0,0,1-5.38-2.16,6.22,6.22,0,0,1-2.35-4.59C176.26,10.23,177.3,9.14,179.45,8.57Z"/><path class="cls-1" d="M212.25,4.75A1.21,1.21,0,0,0,211,6v.31a5.94,5.94,0,0,0-.91-.73,7.7,7.7,0,0,0-3.74-1,7.94,7.94,0,0,0-3.27.59,7.69,7.69,0,0,0-4.75,7.17,8,8,0,0,0,4.94,8,7.71,7.71,0,0,0,6.85-.49,6.83,6.83,0,0,0,.88-.71v.3a1.21,1.21,0,0,0,1.23,1.26,1.22,1.22,0,0,0,1.26-1.26V6A1.22,1.22,0,0,0,212.25,4.75Zm-6.18,13.72a5.6,5.6,0,0,1-3-1.1,5.8,5.8,0,0,1-2.19-5,6.45,6.45,0,0,1,.45-2.18,5.31,5.31,0,0,1,5-3.1h.07a5.57,5.57,0,0,1,2.19.48,4.45,4.45,0,0,1,2.5,4v2.42a4.45,4.45,0,0,1-2.48,4A5.38,5.38,0,0,1,206.07,18.47Z"/><path class="cls-1" d="M229.65,4.7A1.21,1.21,0,0,0,228.41,6V6.3a6.67,6.67,0,0,0-.91-.71,7.66,7.66,0,0,0-6.82-.47,8,8,0,0,0-4.94,8,7.69,7.69,0,0,0,4.73,7.16,7.8,7.8,0,0,0,3.29.59,6.94,6.94,0,0,0,4.65-1.76v.25c0,3.27-2.64,4.44-5.12,4.44a6,6,0,0,1-4.22-1.44,1.31,1.31,0,0,0-1.77.12,1.23,1.23,0,0,0,.14,1.73,7.92,7.92,0,0,0,5.85,2.06c4.63,0,7.62-2.72,7.62-6.91V6A1.22,1.22,0,0,0,229.65,4.7Zm-3.73,2.86a4.46,4.46,0,0,1,2.49,4v2.39a4.61,4.61,0,0,1-4.67,4.5h-.07a5.31,5.31,0,0,1-5-3.11,6.4,6.4,0,0,1-.45-2.18,5.79,5.79,0,0,1,2.18-5,5.55,5.55,0,0,1,3-1.11A5.49,5.49,0,0,1,225.92,7.56Z"/><path class="cls-1" d="M243.38,4.83a9.46,9.46,0,0,0-4.64,0,7.87,7.87,0,0,0-5.69,7.29A8.44,8.44,0,0,0,234.89,18a7.89,7.89,0,0,0,6.23,2.79h.15a7.87,7.87,0,0,0,5.37-1.91,1.21,1.21,0,0,0,.13-1.7A1.31,1.31,0,0,0,245,17a6.11,6.11,0,0,1-3.94,1.28,5.52,5.52,0,0,1-4.21-1.9,5.26,5.26,0,0,1-1.1-2.09h11.73a1.54,1.54,0,0,0,1.63-1.72C249,8.68,246.9,5.78,243.38,4.83Zm-7.76,7.06a5.33,5.33,0,0,1,3.86-4.67,6.66,6.66,0,0,1,3.2,0,5.2,5.2,0,0,1,3.91,4.7Z"/><path class="cls-1" d="M263.89,6a7.56,7.56,0,0,0-10.06,1V6a1.21,1.21,0,0,0-1.23-1.26A1.23,1.23,0,0,0,251.34,6V19.53a1.22,1.22,0,0,0,1.26,1.26,1.21,1.21,0,0,0,1.23-1.26v-6.7a6,6,0,0,1,4.35-5.69,4.65,4.65,0,0,1,4.06.79A4.4,4.4,0,0,1,264,11.49v8a1.25,1.25,0,1,0,2.5,0v-8A6.78,6.78,0,0,0,263.89,6Z"/><path class="cls-1" d="M281.28,16a1.48,1.48,0,0,0-.79.47,5,5,0,0,1-4,1.87,5.39,5.39,0,0,1-4.25-1.88,6.08,6.08,0,0,1-.93-5.7,5.06,5.06,0,0,1,3.42-3.54,5.15,5.15,0,0,1,5.49,1.64,1.16,1.16,0,0,0,1.11.45,1.21,1.21,0,0,0,.84-.43,1.23,1.23,0,0,0,.27-.85,1.26,1.26,0,0,0-.3-.78c-2-2.35-4.5-3.08-8-2.34a7.61,7.61,0,0,0-5.6,7.26,8.24,8.24,0,0,0,1.8,5.86,7.93,7.93,0,0,0,6.1,2.78h.06a7.57,7.57,0,0,0,5.91-2.72,1.24,1.24,0,0,0,.34-.93l0-.24A1.29,1.29,0,0,0,281.28,16Z"/><path class="cls-1" d="M298.57,5.21a1.31,1.31,0,0,0-1.21-.56,1.27,1.27,0,0,0-1.05.78l-5.57,11.26L285,5.36a1.3,1.3,0,0,0-1.61-.56,1.26,1.26,0,0,0-.72,1.48l6.6,13.06-2.48,5a1.26,1.26,0,0,0,.63,1.65,1.12,1.12,0,0,0,.44.09,1.36,1.36,0,0,0,1.21-.84l9.52-18.8A1.19,1.19,0,0,0,298.57,5.21Z"/><polygon class="cls-2" points="194.77 105.53 236.8 32.73 278.84 105.53 194.77 105.53"/><polygon class="cls-1" points="328.23 32.73 286.39 105.19 244.56 32.73 328.23 32.73"/><polygon class="cls-2" points="297.9 26.26 312.56 0.13 327.23 26.26 297.9 26.26"/><path class="cls-1" d="M136.86,96.86a21,21,0,0,0,10.5,2.8,19.8,19.8,0,0,0,10.39-2.89,22,22,0,0,0,10.31-18.39,21.3,21.3,0,0,0-2.8-10.59A20,20,0,0,0,157.68,60a20.39,20.39,0,0,0-10.42-2.77,19.71,19.71,0,0,0-14.85,6.16,21.12,21.12,0,0,0-5.9,15.17Q126.51,91.1,136.86,96.86Z"/><path class="cls-1" d="M83.86,57.34a19.12,19.12,0,0,0-14.52,6.28,21.1,21.1,0,0,0-5.89,14.95A21.51,21.51,0,0,0,66.09,89a19.33,19.33,0,0,0,7.47,7.71,20.34,20.34,0,0,0,10.3,2.7q11.94,0,17.67-10.26a21.33,21.33,0,0,0,2.74-10.59,21.11,21.11,0,0,0-5.9-14.95A19.11,19.11,0,0,0,83.86,57.34Z"/><path class="cls-1" d="M34.63,32.73V51.84h13v6h-13v22.6A18,18,0,0,0,37.22,89a19.29,19.29,0,0,0,7.48,7.71,19.94,19.94,0,0,0,2.93,1.37V105a26.08,26.08,0,0,1-12.12-7c-.3-.3-.88-.59-.88-.9-4-4.3-6-8.89-7-15.27v-24h-9v-6h9V32.73H.32v90.83H120.23V52H127v9.65q8-11,20.83-11a25.87,25.87,0,0,1,19.21,8,26.79,26.79,0,0,1,7.88,19.4,27.24,27.24,0,0,1-7.71,19.55A25.48,25.48,0,0,1,148,105.89q-12.48,0-21-10.38v28.05h48.09l53.76-90.83Zm68.68,65.21a26.29,26.29,0,0,1-19.45,8A27,27,0,0,1,56.5,78.43a27.28,27.28,0,0,1,7.24-18.92,25.89,25.89,0,0,1,20.12-8.83,25.92,25.92,0,0,1,20.07,8.78,27.33,27.33,0,0,1,7.24,19A26.63,26.63,0,0,1,103.31,97.94Z"/></g></g></svg>