<svg xmlns="http://www.w3.org/2000/svg" style="display:none"><defs><style>.cls-1{fill:#6d6d6c;fill-rule:evenodd}</style><style>.cls-1{fill:#d3be84;fill-rule:evenodd}</style><style>.cls-1{fill:#464135;fill-rule:evenodd}</style><style>.cls-1{fill:#d3be84;fill-rule:evenodd}</style><style>.cls-1{fill:#d3be84;fill-rule:evenodd}</style><style>.cls-1{fill:#64615e;fill-rule:evenodd}</style><style>.cls-1{fill:#d3be84;fill-rule:evenodd}</style><style>.cls-1{fill:#64615e;fill-rule:evenodd}</style><style>.cls-1{fill:#64615e;fill-rule:evenodd}</style></defs><symbol id="icon-more" viewBox="0 0 22 20"><path id="Forma_1" data-name="Forma 1" class="cls-1" d="M175.767 3124.64l-6.286-6.4a.756.756 0 0 0-1.1 0 .769.769 0 0 0-.233.56v3.2h-2.75q-8.754 0-10.743 5.04a11.54 11.54 0 0 0-.65 4.16 15.28 15.28 0 0 0 1.559 5.64c.025.05.067.15.129.3s.117.26.166.37a1.587 1.587 0 0 0 .159.28.419.419 0 0 0 .344.21.342.342 0 0 0 .289-.13.452.452 0 0 0 .1-.31 2.637 2.637 0 0 0-.031-.33 2.856 2.856 0 0 1-.031-.29c-.041-.57-.061-1.08-.061-1.54a10.775 10.775 0 0 1 .215-2.26 6.736 6.736 0 0 1 .595-1.73 4.41 4.41 0 0 1 .983-1.27 5.675 5.675 0 0 1 1.3-.86 6.727 6.727 0 0 1 1.633-.54 15.141 15.141 0 0 1 1.89-.27c.635-.05 1.353-.07 2.155-.07h2.75v3.2a.765.765 0 0 0 .233.56.756.756 0 0 0 1.1 0l6.286-6.4a.789.789 0 0 0-.001-1.12z" transform="translate(-154 -3118)"/></symbol><symbol id="icon-next" viewBox="0 0 45.41 26.88"><path id="Forma_1" data-name="Forma 1" class="cls-1" d="M1631.31 4379.01h-43.62a1.506 1.506 0 0 1-.68-1.11 1.166 1.166 0 0 1 .68-.93h43.62a1.215 1.215 0 0 1 .68.96 1.447 1.447 0 0 1-.68 1.08zm-13.57 11.5a.989.989 0 0 1-.31-.98l12.33-11.6-12.45-13.07c-.21-.2.14-.37.34-.57a1.132 1.132 0 0 1 1.11-.16l13.07 12.99a.523.523 0 0 1 .16.37 3.714 3.714 0 0 1 .41.68l-13.64 12.68a1.087 1.087 0 0 1-1.02-.34z" transform="translate(-1587 -4364.03)"/></symbol><symbol id="icon-prev" viewBox="0 0 45.406 26.88"><path id="Forma_1_&#x43A;&#x43E;&#x43F;&#x438;&#x44F;_4" data-name="Forma 1 &#x43A;&#x43E;&#x43F;&#x438;&#x44F; 4" class="cls-1" d="M313.1 4379.01h43.62a1.509 1.509 0 0 0 .677-1.11 1.167 1.167 0 0 0-.677-.93H313.1a1.217 1.217 0 0 0-.678.96 1.451 1.451 0 0 0 .678 1.08zm13.565 11.5a.978.978 0 0 0 .313-.98l-12.329-11.6 12.453-13.07c.2-.2-.14-.37-.343-.57a1.136 1.136 0 0 0-1.112-.16l-13.072 12.99a.524.524 0 0 0-.152.37 3.358 3.358 0 0 0-.41.68l13.634 12.68a1.078 1.078 0 0 0 1.015-.34z" transform="translate(-312 -4364.03)"/></symbol><symbol id="phone-icon" viewBox="0 0 17 16.969"><path id="Forma_1_&#x43A;&#x43E;&#x43F;&#x438;&#x44F;" data-name="Forma 1 &#x43A;&#x43E;&#x43F;&#x438;&#x44F;" class="cls-1" d="M1486.62 65.451l-2.63-2.632a1.367 1.367 0 0 0-1.93.036l-1.32 1.326-.26-.146a13.015 13.015 0 0 1-3.18-2.307 13.371 13.371 0 0 1-2.31-3.195c-.05-.089-.09-.174-.14-.256l.89-.888.44-.438a1.377 1.377 0 0 0 .03-1.935l-2.62-2.633a1.365 1.365 0 0 0-1.93.037l-.74.746.02.02a4.1 4.1 0 0 0-.61 1.078 4.553 4.553 0 0 0-.27 1.093c-.35 2.881.96 5.514 4.53 9.087 4.92 4.939 8.89 4.566 9.06 4.547a4.415 4.415 0 0 0 1.09-.276 4.214 4.214 0 0 0 1.08-.609l.01.015.75-.736a1.378 1.378 0 0 0 .04-1.934z" transform="translate(-1470 -52.031)"/></symbol><symbol id="social-icon-fa" viewBox="0 0 21 38"><path id="Forma_1" data-name="Forma 1" class="cls-1" d="M1752.21 4905.01l-5.04-.01c-5.66 0-9.31 3.67-9.31 9.35v4.31h-5.07a.783.783 0 0 0-.79.78v6.25a.781.781 0 0 0 .79.77h5.07v15.77a.781.781 0 0 0 .79.77h6.61a.788.788 0 0 0 .79-.77v-15.77h5.92a.781.781 0 0 0 .79-.77v-6.25a.764.764 0 0 0-.23-.55.787.787 0 0 0-.56-.23h-5.92v-3.65c0-1.76.43-2.65 2.76-2.65h3.4a.783.783 0 0 0 .79-.78v-5.8a.775.775 0 0 0-.79-.77z" transform="translate(-1732 -4905)"/></symbol><symbol id="social-icon-inst" viewBox="0 0 29 29"><path id="Forma_1" data-name="Forma 1" class="cls-1" d="M1802.94 4914h-10.88a9.065 9.065 0 0 0-9.06 9.06v10.88a9.065 9.065 0 0 0 9.06 9.06h10.88a9.065 9.065 0 0 0 9.06-9.06v-10.88a9.065 9.065 0 0 0-9.06-9.06zm6.34 19.94a6.342 6.342 0 0 1-6.34 6.34h-10.88a6.342 6.342 0 0 1-6.34-6.34v-10.88a6.342 6.342 0 0 1 6.34-6.34h10.88a6.342 6.342 0 0 1 6.34 6.34v10.88zm-11.78-12.69a7.25 7.25 0 1 0 7.25 7.25 7.255 7.255 0 0 0-7.25-7.25zm0 11.78a4.53 4.53 0 1 1 4.53-4.53 4.532 4.532 0 0 1-4.53 4.53zm7.79-13.29a.965.965 0 1 1-.96.97.965.965 0 0 1 .96-.97z" transform="translate(-1783 -4914)"/></symbol><symbol id="social-icon-ok" viewBox="0 0 10 17"><path class="cls-1" d="M8.89 8.5C8.33 8.5 7.22 9.63 5 9.63S1.67 8.5 1.11 8.5A1.125 1.125 0 0 0 0 9.63a1.092 1.092 0 0 0 .56.99c.65.39 2.77 1.28 2.77 1.28L.97 14.98a2.024 2.024 0 0 0-.41.89A1.118 1.118 0 0 0 1.67 17a1.02 1.02 0 0 0 .82-.37L5 13.6l2.51 3.03a1.02 1.02 0 0 0 .82.37 1.118 1.118 0 0 0 1.11-1.13 2.024 2.024 0 0 0-.41-.89L6.67 11.9s2.12-.89 2.77-1.28a1.092 1.092 0 0 0 .56-.99A1.125 1.125 0 0 0 8.89 8.5zM5 0a3.966 3.966 0 1 0 3.89 3.97A3.931 3.931 0 0 0 5 0zm0 5.95a1.986 1.986 0 1 1 1.94-1.98A1.963 1.963 0 0 1 5 5.95z"/></symbol><symbol id="social-icon-tg" viewBox="0 0 300 300"><path d="M5.299 144.645l69.126 25.8 26.756 86.047c1.712 5.511 8.451 7.548 12.924 3.891l38.532-31.412a11.496 11.496 0 0 1 14.013-.391l69.498 50.457c4.785 3.478 11.564.856 12.764-4.926L299.823 29.22c1.31-6.316-4.896-11.585-10.91-9.259L5.218 129.402c-7.001 2.7-6.94 12.612.081 15.243zm91.57 12.066l135.098-83.207c2.428-1.491 4.926 1.792 2.841 3.726L123.313 180.87a23.112 23.112 0 0 0-7.163 13.829l-3.798 28.146c-.503 3.758-5.782 4.131-6.819.494l-14.607-51.325c-1.673-5.854.765-12.107 5.943-15.303z"/></symbol><symbol id="social-icon-viber" viewBox="0 0 504 504"><path d="M377.6 0H126C56.8 0 0 56.8 0 126.4V378c0 69.2 56.8 126 126 126h251.6c69.6 0 126.4-56.8 126.4-126.4V126.4C504 56.8 447.2 0 377.6 0zM238.4 103.6c.8-12.4 12.4-8 18.4-8.8 75.2 2.4 140 70 139.2 142.8 0 7.2 2.4 17.6-8.4 17.6-10.4 0-7.6-10.8-8.8-18-10-77.2-46-113.6-124.4-125.6-6.4-.8-16.4.4-16-8zm112.4 137.2c-12 1.6-9.6-8.8-10.8-15.6-8-47.2-24.8-64.4-73.2-74.8-7.2-1.6-18.4-.4-16.4-11.2 1.6-10.4 11.6-6.8 19.2-6 48.4 5.6 88 46.8 87.6 92-.8 4.8 2.4 14-6.4 15.6zm-30-24.8c0 6.4-.8 12.4-8 13.2-5.2.8-8.4-3.6-9.2-8.8-2-19.2-12.4-30.8-32.4-34-6-.8-11.6-2.8-8.8-10.8 2-5.2 6.8-6 12-6 21.6-.4 46.4 24.8 46.4 46.4zm76 147.6c-8.4 22.8-36.8 46-61.2 45.6-3.6-.8-10.4-2-16.4-4.4C212 359.6 134 285.2 90 178.8c-14.8-35.6.8-66 38-78 6.8-2.4 13.2-2.4 20 0 16 5.6 56.4 60.4 57.2 76.4.8 12.4-8 19.2-16.4 24.8-16.4 10.8-16.4 24.4-9.2 40 15.6 34.4 42.4 58.4 77.2 73.6 12.4 5.6 24.8 5.2 33.2-7.6 15.2-22.8 34-21.6 54.4-7.6 10.4 7.2 20.8 14 30.4 21.6 13.2 10.8 30 19.6 22 41.6z"/></symbol><symbol id="social-icon-vk" viewBox="0 0 42 24"><path id="Forma_1" data-name="Forma 1" class="cls-1" d="M1701.77 4940.68a2.427 2.427 0 0 0-.14-.28 21.948 21.948 0 0 0-4.17-4.84l-.05-.04-.02-.02-.02-.03h-.02a23.617 23.617 0 0 1-1.77-1.79 1.681 1.681 0 0 1-.31-1.78 16.187 16.187 0 0 1 1.97-2.87c.6-.77 1.07-1.39 1.42-1.86q3.78-5.04 3.28-6.44l-.13-.22a1.332 1.332 0 0 0-.68-.36 3.462 3.462 0 0 0-1.4-.06l-6.3.05a.787.787 0 0 0-.43.01c-.19.04-.29.07-.29.07l-.11.05-.08.07a.73.73 0 0 0-.24.23 1.266 1.266 0 0 0-.22.38 36.827 36.827 0 0 1-2.34 4.93c-.54.9-1.04 1.69-1.49 2.35a10.276 10.276 0 0 1-1.14 1.47 6.762 6.762 0 0 1-.83.76.789.789 0 0 1-.57.24c-.13-.03-.25-.06-.37-.09a1.425 1.425 0 0 1-.49-.54 2.372 2.372 0 0 1-.25-.85c-.04-.34-.07-.64-.08-.89s0-.6.01-1.05.03-.76.03-.92c0-.56.01-1.16.03-1.81s.04-1.16.05-1.54.02-.78.02-1.21a5.167 5.167 0 0 0-.07-.99 3.675 3.675 0 0 0-.23-.71 1.144 1.144 0 0 0-.45-.52 2.917 2.917 0 0 0-.73-.3 14.6 14.6 0 0 0-2.95-.28c-2.72-.03-4.46.14-5.23.52a2.879 2.879 0 0 0-.83.66c-.26.32-.3.5-.11.53a2.685 2.685 0 0 1 1.86.94l.13.26a4.746 4.746 0 0 1 .31 1.01 10.64 10.64 0 0 1 .19 1.6 15.559 15.559 0 0 1 0 2.74q-.1 1.14-.21 1.77a3.351 3.351 0 0 1-.29 1.03 3.471 3.471 0 0 1-.26.48.363.363 0 0 1-.11.11 1.507 1.507 0 0 1-.59.11 1.427 1.427 0 0 1-.75-.3 5.35 5.35 0 0 1-.9-.85 9.588 9.588 0 0 1-1.06-1.5 23.142 23.142 0 0 1-1.23-2.28l-.35-.63c-.22-.41-.52-1.01-.89-1.79s-.72-1.53-1.01-2.26a1.486 1.486 0 0 0-.52-.71l-.11-.06a1.769 1.769 0 0 0-.35-.19 2.73 2.73 0 0 0-.51-.14l-5.99.04a1.49 1.49 0 0 0-1.24.42l-.09.13a.633.633 0 0 0-.07.35 1.92 1.92 0 0 0 .13.59q1.32 3.09 2.86 5.96c1.02 1.92 1.92 3.46 2.68 4.62s1.53 2.28 2.31 3.31 1.31 1.7 1.57 2 .45.51.6.65l.54.53a13.16 13.16 0 0 0 1.55 1.26 25.1 25.1 0 0 0 2.25 1.45 12.366 12.366 0 0 0 2.87 1.16 9.907 9.907 0 0 0 3.2.36h2.51a1.8 1.8 0 0 0 1.16-.48l.09-.11a1.939 1.939 0 0 0 .16-.41 2.233 2.233 0 0 0 .08-.6 6.967 6.967 0 0 1 .14-1.7 4.6 4.6 0 0 1 .37-1.14 2.946 2.946 0 0 1 .47-.64 1.783 1.783 0 0 1 .37-.32c.08-.04.13-.06.18-.08a1.4 1.4 0 0 1 1.23.34 7.242 7.242 0 0 1 1.34 1.27c.41.51.91 1.07 1.49 1.7a10.45 10.45 0 0 0 1.53 1.4l.44.27a5.741 5.741 0 0 0 1.14.48 2.541 2.541 0 0 0 1.22.11l5.6-.09a2.554 2.554 0 0 0 1.29-.27 1.114 1.114 0 0 0 .55-.61 1.663 1.663 0 0 0 .01-.74 2.122 2.122 0 0 0-.16-.58z" transform="translate(-1660 -4919)"/></symbol><symbol id="social-icon-wh" viewBox="0 0 90 90"><path d="M90 43.841c0 24.213-19.779 43.841-44.182 43.841a44.256 44.256 0 0 1-21.357-5.455L0 90l7.975-23.522a43.38 43.38 0 0 1-6.34-22.637C1.635 19.628 21.416 0 45.818 0 70.223 0 90 19.628 90 43.841zM45.818 6.982c-20.484 0-37.146 16.535-37.146 36.859 0 8.065 2.629 15.534 7.076 21.61L11.107 79.14l14.275-4.537A37.122 37.122 0 0 0 45.819 80.7c20.481 0 37.146-16.533 37.146-36.857S66.301 6.982 45.818 6.982zm22.311 46.956c-.273-.447-.994-.717-2.076-1.254-1.084-.537-6.41-3.138-7.4-3.495-.993-.358-1.717-.538-2.438.537-.721 1.076-2.797 3.495-3.43 4.212-.632.719-1.263.809-2.347.271-1.082-.537-4.571-1.673-8.708-5.333-3.219-2.848-5.393-6.364-6.025-7.441-.631-1.075-.066-1.656.475-2.191.488-.482 1.084-1.255 1.625-1.882.543-.628.723-1.075 1.082-1.793.363-.717.182-1.344-.09-1.883-.27-.537-2.438-5.825-3.34-7.977-.902-2.15-1.803-1.792-2.436-1.792-.631 0-1.354-.09-2.076-.09s-1.896.269-2.889 1.344c-.992 1.076-3.789 3.676-3.789 8.963 0 5.288 3.879 10.397 4.422 11.113.541.716 7.49 11.92 18.5 16.223C58.2 65.771 58.2 64.336 60.186 64.156c1.984-.179 6.406-2.599 7.312-5.107.9-2.512.9-4.663.631-5.111z"/></symbol><symbol id="social-icon-you" viewBox="0 0 48 33"><path id="Forma_1" data-name="Forma 1" class="cls-1" d="M1887.96 4913.18c-1.3-2.32-2.72-2.74-5.59-2.9-2.88-.2-10.1-.28-16.36-.28-6.28 0-13.51.08-16.38.27-2.87.17-4.29.59-5.6 2.91-1.34 2.31-2.03 6.3-2.03 13.31v.02c0 6.99.69 11 2.03 13.29 1.31 2.32 2.73 2.74 5.6 2.93 2.87.17 10.1.27 16.38.27 6.26 0 13.48-.1 16.36-.26 2.88-.2 4.29-.62 5.59-2.94 1.36-2.28 2.04-6.3 2.04-13.28v-.03c0-7.01-.68-11-2.04-13.31zM1860 4935.5v-18l15 9z" transform="translate(-1842 -4910)"/></symbol><symbol id="temp-icon-left-arrow" viewBox="0 0 31.494 31.494"><path d="M10.273 5.01a1.117 1.117 0 0 1 1.587 1.57l-8.047 8.047h26.554c.62 0 1.127.492 1.127 1.11 0 .62-.508 1.128-1.127 1.128H3.813l8.047 8.032c.43.444.43 1.16 0 1.587a1.112 1.112 0 0 1-1.587 0L.32 16.532a1.12 1.12 0 0 1 0-1.57l9.953-9.953z" fill="#1E201D"/></symbol><symbol id="temp-icon-right-arrow" viewBox="0 0 31.49 31.49"><path d="M21.205 5.007a1.117 1.117 0 0 0-1.587 1.57l8.047 8.048H1.11c-.618 0-1.11.493-1.11 1.112 0 .62.492 1.127 1.11 1.127h26.555l-8.047 8.032c-.43.444-.43 1.16 0 1.587.444.444 1.16.444 1.587 0l9.952-9.952a1.092 1.092 0 0 0 0-1.57l-9.952-9.95z" fill="#1E201D"/></symbol></svg>